<svg id="visual" viewBox="0 0 900 600" width="900" height="600" xmlns="http://www.w3.org/2000/svg" xmlns:xlink="http://www.w3.org/1999/xlink" version="1.1"><path d="M0 490L25 494.2C50 498.3 100 506.7 150 512.5C200 518.3 250 521.7 300 520.8C350 520 400 515 450 512.5C500 510 550 510 600 507.8C650 505.7 700 501.3 750 507.3C800 513.3 850 529.7 875 537.8L900 546L900 601L875 601C850 601 800 601 750 601C700 601 650 601 600 601C550 601 500 601 450 601C400 601 350 601 300 601C250 601 200 601 150 601C100 601 50 601 25 601L0 601Z" fill="#ffc306" stroke-linecap="round" stroke-linejoin="miter"></path></svg>